<?xml version="1.0" standalone="no"?>
<!DOCTYPE svg PUBLIC "-//W3C//DTD SVG 20010904//EN"
 "http://www.w3.org/TR/2001/REC-SVG-20010904/DTD/svg10.dtd">
<svg version="1.0" xmlns="http://www.w3.org/2000/svg"
 width="750.000000pt" height="750.000000pt" viewBox="0 0 750.000000 750.000000"
 preserveAspectRatio="xMidYMid meet">

<g transform="translate(0.000000,750.000000) scale(0.100000,-0.100000)"
fill="#000000" stroke="none">
<path d="M2236 5174 c-14 -14 -16 -133 -16 -1165 0 -774 3 -1157 10 -1170 10
-18 23 -19 231 -19 133 0 228 4 240 10 18 10 19 26 19 435 l0 425 330 0 c261
0 337 3 363 14 18 8 86 68 152 135 l120 121 3 453 c2 292 0 465 -7 487 -7 25
-46 72 -130 155 -66 66 -128 123 -138 126 -10 4 -275 8 -590 8 -507 1 -573 -1
-587 -15z m911 -517 l38 -37 0 -181 0 -180 -42 -40 -43 -39 -187 2 -188 3 -3
245 c-1 134 0 251 3 258 4 10 44 13 195 10 l190 -3 37 -38z"/>
<path d="M3475 2993 c-77 -40 -115 -100 -115 -181 0 -132 151 -223 269 -162
108 54 141 179 74 274 -55 77 -155 108 -228 69z"/>
<path d="M4925 2987 c-138 -78 -135 -266 6 -337 180 -92 360 146 221 293 -64
68 -154 85 -227 44z"/>
</g>
</svg>
